<svg width="170" height="170" viewBox="0 0 170 170" fill="none" xmlns="http://www.w3.org/2000/svg">
<rect width="170" height="170" fill="#EDDDD9"/>
<path d="M146.678 60.1063C147.238 60.0273 149.015 60.0434 149.589 60.068C155.571 60.324 159.88 62.6911 163.863 66.8785C161.04 69.4991 157.816 72.0211 154.984 74.6613C154.923 74.594 154.861 74.5271 154.798 74.4607C153.409 72.9816 151.537 71.1224 149.393 71.1219C148.444 71.1217 147.546 71.1515 146.81 71.816C146.367 72.217 146.112 72.7756 146.103 73.3633C146.086 74.0805 146.447 74.8139 146.963 75.3035C148.541 76.7986 150.729 77.9922 152.581 79.1702C155.153 80.806 157.215 82.2478 159.342 84.3917C162.664 87.6775 164.087 91.0391 163.996 95.6324C163.853 102.802 158.751 108.276 151.649 109.83C149.664 110.264 148.013 110.358 145.983 110.31C144.189 110.314 141.641 109.917 139.937 109.384C135.11 107.874 132.095 104.733 129.823 100.481C130.868 99.772 132.361 98.9188 133.463 98.246L140.248 94.1195C141.973 96.6837 143.855 98.797 147.329 98.5737C150.16 98.3917 150.993 95.7743 149.108 93.8698C147.616 92.3633 145.84 91.3126 144.08 90.1371C138.78 86.6406 132.849 82.5476 132.27 75.7926C131.92 71.9152 132.607 68.3956 135.221 65.3249C138.161 61.8719 142.217 60.5366 146.678 60.1063Z" fill="white"/>
<path d="M74.0263 60.043C76.2561 59.8695 79.1013 60.2468 81.282 60.7067C82.213 60.8857 83.1134 61.3316 84.0731 61.3394C96.0885 61.4363 108.131 61.2296 120.144 61.3612C120.244 64.6463 120.174 68.5298 120.142 71.8324C116.717 71.8265 113.022 71.7627 109.617 71.8559L109.623 95.2129C109.625 99.7337 109.71 104.563 109.601 109.056C105.422 109.131 101.031 109.065 96.8363 109.065L96.8378 71.847C93.5657 71.9076 90.1341 71.8596 86.8525 71.8516C86.8556 73.6701 86.8477 75.4886 86.8304 77.3071C86.4806 76.8997 86.1166 76.5049 85.7368 76.1236C80.5697 70.9703 71.9796 70.5633 66.5521 75.6042C61.2733 80.507 61.2169 89.4188 66.3289 94.4881C68.7619 96.9421 72.1173 98.3342 75.6279 98.346C80.3736 98.3952 83.5875 96.3623 86.8335 93.2741L86.8399 107.956C82.6666 109.403 79.4353 110.339 74.9587 110.367C66.162 110.491 58.5586 106.052 53.5776 99.2106C53.8709 100.122 54.3958 101.317 54.7474 102.237C55.6168 104.51 56.5607 106.769 57.3994 109.054C55.8623 109.101 54.1299 109.065 52.5807 109.065L43.7659 109.059C42.7729 106.375 41.7576 103.473 40.8345 100.764C34.8725 100.782 28.5234 100.868 22.5841 100.761C21.6657 103.489 20.6043 106.346 19.6343 109.067L6 109.07C8.24262 102.953 10.9251 96.4843 13.3207 90.3781L24.7209 61.3631C29.1629 61.276 34.2588 61.2852 38.704 61.3668L45.799 79.4522C46.9741 82.4432 48.1536 85.596 49.3889 88.5509C48.62 80.7348 50.3617 73.9435 55.9623 68.0626C60.6549 63.1806 67.1489 60.2976 74.0263 60.043ZM31.787 91.3176L37.4309 91.3197L33.4672 80.3658L32.3234 77.1944C32.1831 76.8058 31.8624 75.853 31.6892 75.5147L27.8789 86.0691C27.3659 87.49 26.3854 89.9576 26.0003 91.3187L31.787 91.3176Z" fill="white"/>
</svg>
