<svg width="150" height="50" viewBox="0 0 150 50" fill="none" xmlns="http://www.w3.org/2000/svg">
<path d="M64.7786 0.963733C66.8469 0.802824 69.4861 1.15279 71.5088 1.57932C72.3724 1.74536 73.2076 2.15903 74.0978 2.1662C85.243 2.25611 96.4132 2.06439 107.556 2.18642C107.649 5.23363 107.584 8.83594 107.555 11.8993C104.378 11.8938 100.951 11.8347 97.7916 11.9211L97.7975 33.5866C97.7989 37.78 97.878 42.2594 97.777 46.4268C93.901 46.4971 89.828 46.4352 85.9366 46.4353L85.9381 11.9129C82.9029 11.969 79.7198 11.9246 76.6759 11.9171C76.6788 13.604 76.6715 15.2908 76.6554 16.9776C76.3309 16.5997 75.9933 16.2335 75.641 15.8798C70.8481 11.0997 62.8801 10.7221 57.8456 15.398C52.9492 19.9457 52.8968 28.2121 57.6386 32.9143C59.8954 35.1906 63.0078 36.4819 66.2641 36.4928C70.6662 36.5385 73.6473 34.6528 76.6583 31.7882L76.6642 45.4066C72.7931 46.7494 69.7959 47.6168 65.6434 47.6433C57.4838 47.7579 50.431 43.6408 45.8108 37.2948C46.0828 38.1406 46.5697 39.2489 46.8958 40.1016C47.7023 42.2104 48.5778 44.3058 49.3558 46.4255C47.93 46.4688 46.3231 46.4352 44.8861 46.4357L36.7096 46.43C35.7885 43.9402 34.8468 41.2482 33.9905 38.7354C28.4603 38.7526 22.571 38.8319 17.0618 38.7329C16.2099 41.263 15.2254 43.9131 14.3256 46.4372L1.67871 46.4403C3.75892 40.7663 6.24716 34.766 8.46925 29.1019L19.0438 2.18818C23.1641 2.10743 27.891 2.11593 32.0143 2.19165L38.5955 18.9673C39.6855 21.7417 40.7796 24.6662 41.9254 27.4071C41.2122 20.157 42.8277 13.8575 48.0227 8.40249C52.3755 3.87412 58.3993 1.19987 64.7786 0.963733ZM25.5983 29.9734L30.8334 29.9754L27.1567 19.8147L26.0958 16.873C25.9656 16.5126 25.6682 15.6288 25.5075 15.315L21.9731 25.105C21.4973 26.423 20.5878 28.7119 20.2306 29.9744L25.5983 29.9734Z" fill="black"/>
<path d="M132.169 1.02202C132.689 0.948717 134.337 0.96366 134.869 0.986459C140.418 1.22391 144.416 3.41959 148.11 7.30377C145.491 9.73453 142.501 12.0739 139.874 14.523C139.817 14.4605 139.76 14.3984 139.702 14.3369C138.413 12.9649 136.676 11.2403 134.688 11.2399C133.807 11.2396 132.974 11.2673 132.292 11.8837C131.881 12.2556 131.644 12.7738 131.636 13.3189C131.62 13.9842 131.955 14.6644 132.434 15.1186C133.897 16.5055 135.927 17.6126 137.645 18.7053C140.031 20.2226 141.943 21.56 143.916 23.5487C146.998 26.5965 148.318 29.7146 148.233 33.9753C148.1 40.6257 143.368 45.7031 136.78 47.1446C134.939 47.5474 133.407 47.6344 131.525 47.5896C129.861 47.5938 127.497 47.2254 125.916 46.7306C121.439 45.33 118.642 42.4173 116.535 38.4725C117.504 37.8151 118.889 37.0237 119.912 36.3996L126.205 32.572C127.805 34.9505 129.551 36.9107 132.773 36.7036C135.399 36.5348 136.172 34.1069 134.423 32.3404C133.04 30.943 131.392 29.9683 129.76 28.878C124.843 25.6347 119.342 21.8381 118.805 15.5723C118.48 11.9757 119.117 8.71102 121.542 5.86265C124.269 2.65975 128.031 1.42117 132.169 1.02202Z" fill="black"/>
</svg>
