<?xml version="1.0" encoding="UTF-8"?>
<svg id="Calque_2" data-name="Calque 2" xmlns="http://www.w3.org/2000/svg" viewBox="0 0 872.74 286.74">
  <g id="Calque_1-2" data-name="Calque 1">
    <g>
      <path d="M413.35,3.42c-10.45-2.28-21.07-3.42-31.88-3.42-18.98,0-37.11,3.55-54.4,10.63-17.29,7.09-32.48,16.93-45.57,29.54-13.09,12.61-23.54,27.62-31.34,45.03-7.81,17.41-11.71,36.56-11.71,57.46,0,7.19.48,14.19,1.42,21L180.47,7.56h-77.09L0,279.18h75.28l16.21-47.19h100.86l16.21,47.19h75.29l-21.73-57.08c5.75,8.81,12.33,16.85,19.74,24.12,13.08,12.85,28.21,22.82,45.39,29.9,17.17,7.08,35.12,10.63,53.86,10.63,9.12,0,18.37-.9,27.74-2.7,9.36-1.8,19.45-4.63,30.26-8.46l7.2-2.52v-83.57c-18.01,19.22-38.31,28.82-60.88,28.82-10.33,0-19.93-1.92-28.82-5.77-8.88-3.84-16.63-9.12-23.23-15.85-6.61-6.72-11.77-14.65-15.49-23.78-3.73-9.12-5.59-19.09-5.59-29.9s1.86-20.41,5.59-29.54c3.72-9.12,8.82-16.99,15.31-23.59,6.49-6.6,14.23-11.83,23.23-15.67,9.01-3.84,18.79-5.76,29.36-5.76,24.01,0,44.18,9.97,60.52,29.9v-30.98h55.47v211.81h70.61V67.36h57.99V7.56h-201.69c-5.24-1.66-10.35-3.05-15.34-4.14ZM110.23,178.31l31.7-90.42,31.7,90.42h-63.4Z"/>
      <path d="M869.69,176.1c-2.04-7.75-5.59-15.31-10.67-22.68-5.09-7.37-11.82-14.87-20.21-22.5-8.39-7.62-19.06-15.5-32.03-23.64-11.7-7.37-20.08-13.15-25.16-17.35-5.09-4.2-7.63-8.45-7.63-12.77,0-9.4,5.47-14.11,16.39-14.11,6.61,0,12.58,2.09,17.92,6.29,5.34,4.2,10.16,8.84,14.49,13.92l49.18-44.22c-11.7-12.96-24.4-22.68-38.13-29.16-13.72-6.48-29.36-9.72-46.89-9.72-12.71,0-24.59,1.78-35.64,5.33-11.05,3.56-20.59,8.77-28.59,15.63-8.01,6.86-14.3,15.19-18.87,24.97-4.58,9.79-6.86,20.91-6.86,33.36,0,10.67,1.53,20.2,4.58,28.59,3.05,8.39,7.5,16.2,13.34,23.44,5.84,7.25,12.96,14.17,21.35,20.78,8.39,6.61,18.04,13.6,28.97,20.97,6.61,4.33,11.94,8.07,16.01,11.25,4.06,3.18,7.18,5.97,9.34,8.39,2.16,2.42,3.62,4.58,4.39,6.48.76,1.9,1.14,3.88,1.14,5.91,0,4.07-1.53,7.5-4.58,10.3-3.05,2.8-7.62,4.19-13.72,4.19-7.37,0-13.98-2.16-19.83-6.48-5.85-4.32-11.31-10.68-16.39-19.06l-57.57,36.22c8.64,17.79,20.52,31.58,35.65,41.36,15.12,9.78,34.75,14.68,58.9,14.68,13.72,0,26.3-2.1,37.74-6.29,11.44-4.2,21.35-10.1,29.74-17.73,8.39-7.62,14.93-16.71,19.64-27.26,4.7-10.54,7.06-22.05,7.06-34.5,0-8.63-1.02-16.83-3.05-24.59Z"/>
    </g>
  </g>
</svg>